<svg width="24" height="24" viewBox="0 0 24 24" fill="none" xmlns="http://www.w3.org/2000/svg">
<g clip-path="url(#clip0_2442_48483)">
<path d="M9 5H19L21 7L19 9H9C8.73478 9 8.48043 8.89464 8.29289 8.70711C8.10536 8.51957 8 8.26522 8 8V6C8 5.73478 8.10536 5.48043 8.29289 5.29289C8.48043 5.10536 8.73478 5 9 5" stroke="#605D62" stroke-width="1.5" stroke-linecap="round" stroke-linejoin="round"/>
<path d="M13 13H6L4 15L6 17H13C13.2652 17 13.5196 16.8946 13.7071 16.7071C13.8946 16.5196 14 16.2652 14 16V14C14 13.7348 13.8946 13.4804 13.7071 13.2929C13.5196 13.1054 13.2652 13 13 13Z" stroke="#605D62" stroke-width="1.5" stroke-linecap="round" stroke-linejoin="round"/>
<path d="M12 22V17" stroke="#605D62" stroke-width="1.5" stroke-linecap="round" stroke-linejoin="round"/>
<path d="M12 13V9" stroke="#605D62" stroke-width="1.5" stroke-linecap="round" stroke-linejoin="round"/>
<path d="M12 5V3" stroke="#605D62" stroke-width="1.5" stroke-linecap="round" stroke-linejoin="round"/>
</g>
<defs>
<clipPath id="clip0_2442_48483">
<rect width="24" height="24" fill="white"/>
</clipPath>
</defs>
</svg>
