<svg width="24" height="24" viewBox="0 0 24 24" fill="none" xmlns="http://www.w3.org/2000/svg">
<path d="M17.1562 5.75537C17.4151 5.75537 17.625 5.5455 17.625 5.28662C17.625 5.02774 17.4151 4.81787 17.1562 4.81787C16.8974 4.81787 16.6875 5.02774 16.6875 5.28662C16.6875 5.5455 16.8974 5.75537 17.1562 5.75537Z" fill="#FEB201"/>
<path d="M6.84375 5.75537C7.10263 5.75537 7.3125 5.5455 7.3125 5.28662C7.3125 5.02774 7.10263 4.81787 6.84375 4.81787C6.58487 4.81787 6.375 5.02774 6.375 5.28662C6.375 5.5455 6.58487 5.75537 6.84375 5.75537Z" fill="#FEB201"/>
<path d="M11.9988 7.40625C12.9033 7.40625 13.6394 6.67013 13.6394 5.76562C13.6394 4.86112 12.9033 4.125 11.9988 4.125C11.0943 4.125 10.3582 4.86112 10.3582 5.76562C10.3582 6.67013 11.0943 7.40625 11.9988 7.40625ZM11.9988 4.59375C12.6449 4.59375 13.1707 5.1195 13.1707 5.76562C13.1707 6.41175 12.6449 6.9375 11.9988 6.9375C11.3527 6.9375 10.8269 6.41175 10.8269 5.76562C10.8269 5.1195 11.3527 4.59375 11.9988 4.59375ZM1.46094 17.25C1.58094 18.8209 2.89756 20.0625 4.49881 20.0625H19.4988C21.1001 20.0625 22.4167 18.8209 22.5367 17.25H1.46094Z" fill="#FEB201"/>
<path d="M2.39062 16.7811H4.26675C4.3485 14.1228 5.8125 11.6628 8.12962 10.3191C8.24175 10.2543 8.385 10.2925 8.44987 10.4043C8.51475 10.5164 8.4765 10.6596 8.36475 10.7245C6.19162 11.9841 4.81687 14.2889 4.7355 16.7808H21.6037C21.4789 11.59 17.2177 7.40576 11.9974 7.40576C6.777 7.40576 2.5155 11.59 2.39062 16.7811ZM11.997 9.28114C12.9994 9.28114 13.9751 9.47089 14.8976 9.84551C15.0176 9.89426 15.0754 10.0308 15.0266 10.1508C14.9895 10.2419 14.9021 10.297 14.8095 10.297C14.7802 10.297 14.7502 10.2914 14.7214 10.2798C13.8551 9.92801 12.9386 9.74989 11.997 9.74989C11.8676 9.74989 11.7626 9.64489 11.7626 9.51551C11.7626 9.38614 11.8676 9.28114 11.997 9.28114Z" fill="#FEB201"/>
</svg>
