<svg width="24" height="24" viewBox="0 0 24 24" fill="none" xmlns="http://www.w3.org/2000/svg">
<path d="M3 3L21 21" stroke="#939094" stroke-width="1.5" stroke-linecap="round" stroke-linejoin="round"/>
<path d="M10.5864 10.5859C10.2111 10.961 10.0002 11.4697 10 12.0002C9.99981 12.5308 10.2104 13.0397 10.5854 13.4149C10.9604 13.7902 11.4692 14.0012 11.9997 14.0013C12.5302 14.0015 13.0391 13.791 13.4144 13.4159" stroke="#939094" stroke-width="1.5" stroke-linecap="round" stroke-linejoin="round"/>
<path d="M17.357 17.3491C15.726 18.4491 13.942 19.0001 12 19.0001C8 19.0001 4.667 16.6671 2 12.0001C3.369 9.60506 4.913 7.82506 6.632 6.65906M9.363 5.36506C10.2204 5.11978 11.1082 4.9969 12 5.00006C16 5.00006 19.333 7.33306 22 12.0001C21.222 13.3611 20.388 14.5241 19.497 15.4881L9.363 5.36506Z" stroke="#939094" stroke-width="1.5" stroke-linecap="round" stroke-linejoin="round"/>
</svg>
