<svg width="24" height="24" viewBox="0 0 24 24" fill="none" xmlns="http://www.w3.org/2000/svg">
<g clip-path="url(#clip0_2442_48501)">
<path d="M6.75 9C6.94891 9 7.13968 8.92098 7.28033 8.78033C7.42098 8.63968 7.5 8.44891 7.5 8.25C7.5 8.05109 7.42098 7.86032 7.28033 7.71967C7.13968 7.57902 6.94891 7.5 6.75 7.5H6V6C6 5.80109 5.92098 5.61032 5.78033 5.46967C5.63968 5.32902 5.44891 5.25 5.25 5.25C5.05109 5.25 4.86032 5.32902 4.71967 5.46967C4.57902 5.61032 4.5 5.80109 4.5 6V8.25C4.5 8.44891 4.57902 8.63968 4.71967 8.78033C4.86032 8.92098 5.05109 9 5.25 9H6.75Z" fill="#489B1C"/>
<path d="M23.7801 13.3461L22.3964 11.9624L21.3276 9.1124C21.2742 8.96945 21.1785 8.84619 21.0532 8.75908C20.9279 8.67198 20.779 8.62517 20.6264 8.6249H19.1264C18.9275 8.6249 18.7367 8.70392 18.596 8.84457C18.4554 8.98522 18.3764 9.17599 18.3764 9.3749C18.3764 9.57381 18.4554 9.76458 18.596 9.90523C18.7367 10.0459 18.9275 10.1249 19.1264 10.1249H20.1051L21.0464 12.6374C21.0842 12.7374 21.143 12.8282 21.2189 12.9036L22.5014 14.1861V17.2499H20.5964C20.2343 16.6244 19.6587 16.1507 18.9752 15.9157C18.2918 15.6808 17.5465 15.7005 16.8764 15.9711V7.5599C16.8764 7.34507 16.791 7.13905 16.6391 6.98714C16.4872 6.83524 16.2812 6.7499 16.0664 6.7499H10.2801C10.0315 5.91017 9.5768 5.14597 8.95737 4.52689C8.33795 3.90781 7.5735 3.45352 6.73363 3.20538C5.89377 2.95725 5.00517 2.92315 4.14876 3.1062C3.29235 3.28924 2.49533 3.68362 1.83029 4.25341C1.16524 4.82321 0.653301 5.55031 0.341079 6.36852C0.0288573 7.18673 -0.0737246 8.07004 0.0426745 8.93803C0.159074 9.80601 0.490756 10.6311 1.00752 11.3381C1.52428 12.0452 2.2097 12.6117 3.00137 12.9861V17.9399C3.00137 18.1547 3.08671 18.3608 3.23861 18.5127C3.39052 18.6646 3.59654 18.7499 3.81137 18.7499H4.12637C4.12637 19.5455 4.44244 20.3086 5.00505 20.8712C5.56766 21.4338 6.33072 21.7499 7.12637 21.7499C7.92202 21.7499 8.68508 21.4338 9.24769 20.8712C9.8103 20.3086 10.1264 19.5455 10.1264 18.7499H15.0014C15.0014 19.5455 15.3174 20.3086 15.88 20.8712C16.4427 21.4338 17.2057 21.7499 18.0014 21.7499C18.797 21.7499 19.5601 21.4338 20.1227 20.8712C20.6853 20.3086 21.0014 19.5455 21.0014 18.7499H23.2514C23.4503 18.7499 23.641 18.6709 23.7817 18.5302C23.9224 18.3896 24.0014 18.1988 24.0014 17.9999V13.8749C24.0005 13.6763 23.921 13.4862 23.7801 13.3461ZM1.50137 8.2499C1.50137 7.50822 1.7213 6.7832 2.13336 6.16651C2.54541 5.54983 3.13108 5.06918 3.81631 4.78535C4.50153 4.50152 5.25553 4.42726 5.98296 4.57195C6.71039 4.71665 7.37857 5.0738 7.90302 5.59825C8.42747 6.1227 8.78462 6.79088 8.92931 7.51831C9.07401 8.24574 8.99975 8.99974 8.71592 9.68496C8.43209 10.3702 7.95144 10.9559 7.33476 11.3679C6.71807 11.78 5.99305 11.9999 5.25137 11.9999C4.25681 11.9999 3.30298 11.6048 2.59972 10.9015C1.89646 10.1983 1.50137 9.24446 1.50137 8.2499ZM7.12637 20.2499C6.8297 20.2499 6.53969 20.1619 6.29301 19.9971C6.04634 19.8323 5.85408 19.598 5.74055 19.3239C5.62702 19.0498 5.59731 18.7482 5.65519 18.4573C5.71307 18.1663 5.85593 17.899 6.06571 17.6892C6.27549 17.4795 6.54276 17.3366 6.83373 17.2787C7.12471 17.2208 7.42631 17.2505 7.70039 17.3641C7.97448 17.4776 8.20875 17.6699 8.37357 17.9165C8.5384 18.1632 8.62637 18.4532 8.62637 18.7499C8.62637 19.1477 8.46833 19.5293 8.18703 19.8106C7.90573 20.0919 7.52419 20.2499 7.12637 20.2499ZM18.0014 20.2499C17.7047 20.2499 17.4147 20.1619 17.168 19.9971C16.9213 19.8323 16.7291 19.598 16.6156 19.3239C16.502 19.0498 16.4723 18.7482 16.5302 18.4573C16.5881 18.1663 16.7309 17.899 16.9407 17.6892C17.1505 17.4795 17.4178 17.3366 17.7087 17.2787C17.9997 17.2208 18.3013 17.2505 18.5754 17.3641C18.8495 17.4776 19.0838 17.6699 19.2486 17.9165C19.4134 18.1632 19.5014 18.4532 19.5014 18.7499C19.5014 19.1477 19.3433 19.5293 19.062 19.8106C18.7807 20.0919 18.3992 20.2499 18.0014 20.2499Z" fill="#489B1C"/>
</g>
<defs>
<clipPath id="clip0_2442_48501">
<rect width="24" height="24" fill="white"/>
</clipPath>
</defs>
</svg>
