<svg width="140" height="140" viewBox="0 0 140 140" fill="none" xmlns="http://www.w3.org/2000/svg">
<rect x="0.5" y="0.5" width="139" height="139" rx="7.5" fill="#E6E1E6"/>
<g clip-path="url(#clip0_224_72049)">
<path d="M73.5 38H73.51" stroke="#48464A" stroke-width="1.5" stroke-linecap="round" stroke-linejoin="round"/>
<path d="M75.5 34H65.5C63.8431 34 62.5 35.3431 62.5 37V47C62.5 48.6569 63.8431 50 65.5 50H75.5C77.1569 50 78.5 48.6569 78.5 47V37C78.5 35.3431 77.1569 34 75.5 34Z" stroke="#48464A" stroke-width="1.5" stroke-linecap="round" stroke-linejoin="round"/>
<path d="M62.5 45.0019L66.5 41.0019C66.9561 40.5631 67.4734 40.332 68 40.332C68.5266 40.332 69.0439 40.5631 69.5 41.0019L74.5 46.0019" stroke="#48464A" stroke-width="1.5" stroke-linecap="round" stroke-linejoin="round"/>
<path d="M72.5 44.0019L73.5 43.0019C73.9561 42.5631 74.4734 42.332 75 42.332C75.5266 42.332 76.0439 42.5631 76.5 43.0019L78.5 45.0019" stroke="#48464A" stroke-width="1.5" stroke-linecap="round" stroke-linejoin="round"/>
</g>
<path d="M38.1674 80V69.84H34.1834V68.72H43.4634V69.84H39.4954V80H38.1674ZM44.9437 80V68.224H46.2397V73.744H46.0317C46.2557 73.1147 46.629 72.64 47.1517 72.32C47.685 71.9893 48.2984 71.824 48.9917 71.824C49.9517 71.824 50.6664 72.0853 51.1357 72.608C51.605 73.12 51.8397 73.8987 51.8397 74.944V80H50.5437V75.024C50.5437 74.2773 50.3944 73.7333 50.0957 73.392C49.8077 73.0507 49.3384 72.88 48.6877 72.88C47.941 72.88 47.3437 73.1093 46.8957 73.568C46.4584 74.0267 46.2397 74.6293 46.2397 75.376V80H44.9437ZM57.8867 80.144C56.628 80.144 55.636 79.7813 54.9107 79.056C54.1854 78.32 53.8227 77.3013 53.8227 76C53.8227 75.1573 53.9827 74.4267 54.3027 73.808C54.6227 73.1787 55.0707 72.6933 55.6467 72.352C56.2227 72 56.884 71.824 57.6307 71.824C58.3667 71.824 58.9854 71.9787 59.4867 72.288C59.988 72.5973 60.372 73.04 60.6387 73.616C60.9054 74.1813 61.0387 74.8533 61.0387 75.632V76.112H54.8147V75.296H60.1907L59.9187 75.504C59.9187 74.6507 59.7267 73.984 59.3427 73.504C58.9587 73.024 58.388 72.784 57.6307 72.784C56.8307 72.784 56.2067 73.0667 55.7587 73.632C55.3107 74.1867 55.0867 74.9387 55.0867 75.888V76.032C55.0867 77.0347 55.332 77.7973 55.8227 78.32C56.324 78.832 57.0227 79.088 57.9187 79.088C58.3987 79.088 58.8467 79.0187 59.2627 78.88C59.6894 78.7307 60.0947 78.4907 60.4787 78.16L60.9267 79.072C60.5747 79.4133 60.1267 79.68 59.5827 79.872C59.0494 80.0533 58.484 80.144 57.8867 80.144ZM55.2627 71.184L57.0067 67.952H58.2547L59.9987 71.184H59.1027L57.6307 68.816L56.1587 71.184H55.2627ZM63.0218 80V73.824C63.0218 73.5253 63.0058 73.2213 62.9738 72.912C62.9525 72.592 62.9258 72.2773 62.8938 71.968H64.1418L64.3018 73.728H64.1098C64.3231 73.12 64.6591 72.6507 65.1178 72.32C65.5871 71.9893 66.1525 71.824 66.8138 71.824C67.4858 71.824 68.0298 71.984 68.4458 72.304C68.8725 72.624 69.1605 73.12 69.3098 73.792H69.0698C69.2725 73.184 69.6298 72.704 70.1418 72.352C70.6538 72 71.2511 71.824 71.9338 71.824C72.8191 71.824 73.4858 72.08 73.9338 72.592C74.3818 73.0933 74.6058 73.888 74.6058 74.976V80H73.3098V75.056C73.3098 74.2987 73.1765 73.7493 72.9098 73.408C72.6431 73.056 72.2165 72.88 71.6298 72.88C70.9578 72.88 70.4245 73.1147 70.0298 73.584C69.6458 74.0427 69.4538 74.6613 69.4538 75.44V80H68.1578V75.056C68.1578 74.2987 68.0245 73.7493 67.7578 73.408C67.4911 73.056 67.0645 72.88 66.4778 72.88C65.8058 72.88 65.2778 73.1147 64.8938 73.584C64.5098 74.0427 64.3178 74.6613 64.3178 75.44V80H63.0218ZM81.2406 80V73.824C81.2406 73.5253 81.2246 73.2213 81.1926 72.912C81.1712 72.592 81.1446 72.2773 81.1126 71.968H82.3606L82.5206 73.728H82.3286C82.5419 73.12 82.8779 72.6507 83.3366 72.32C83.8059 71.9893 84.3712 71.824 85.0326 71.824C85.7046 71.824 86.2486 71.984 86.6646 72.304C87.0912 72.624 87.3792 73.12 87.5286 73.792H87.2886C87.4912 73.184 87.8486 72.704 88.3606 72.352C88.8726 72 89.4699 71.824 90.1526 71.824C91.0379 71.824 91.7046 72.08 92.1526 72.592C92.6006 73.0933 92.8246 73.888 92.8246 74.976V80H91.5286V75.056C91.5286 74.2987 91.3952 73.7493 91.1286 73.408C90.8619 73.056 90.4352 72.88 89.8486 72.88C89.1766 72.88 88.6432 73.1147 88.2486 73.584C87.8646 74.0427 87.6726 74.6613 87.6726 75.44V80H86.3766V75.056C86.3766 74.2987 86.2432 73.7493 85.9766 73.408C85.7099 73.056 85.2832 72.88 84.6966 72.88C84.0246 72.88 83.4966 73.1147 83.1126 73.584C82.7286 74.0427 82.5366 74.6613 82.5366 75.44V80H81.2406ZM98.5834 80.144C97.8154 80.144 97.1434 79.9787 96.5674 79.648C96.0021 79.3067 95.5648 78.8267 95.2554 78.208C94.9461 77.5787 94.7914 76.8373 94.7914 75.984C94.7914 75.12 94.9461 74.3787 95.2554 73.76C95.5648 73.1413 96.0021 72.6667 96.5674 72.336C97.1434 71.9947 97.8154 71.824 98.5834 71.824C99.3621 71.824 100.034 71.9947 100.599 72.336C101.175 72.6667 101.618 73.1413 101.927 73.76C102.247 74.3787 102.407 75.12 102.407 75.984C102.407 76.8373 102.247 77.5787 101.927 78.208C101.618 78.8267 101.175 79.3067 100.599 79.648C100.034 79.9787 99.3621 80.144 98.5834 80.144ZM98.5834 79.088C99.3514 79.088 99.9594 78.8267 100.407 78.304C100.855 77.7707 101.079 76.9973 101.079 75.984C101.079 74.96 100.85 74.1867 100.391 73.664C99.9434 73.1307 99.3408 72.864 98.5834 72.864C97.8261 72.864 97.2234 73.1307 96.7754 73.664C96.3274 74.1867 96.1034 74.96 96.1034 75.984C96.1034 76.9973 96.3274 77.7707 96.7754 78.304C97.2234 78.8267 97.8261 79.088 98.5834 79.088ZM100.087 72.768L99.4154 72.32V71.968C99.8634 71.9573 100.215 71.888 100.471 71.76C100.727 71.632 100.909 71.4347 101.015 71.168C101.122 70.9013 101.175 70.56 101.175 70.144V69.888H102.327V70.336C102.327 70.816 102.237 71.232 102.055 71.584C101.885 71.936 101.629 72.2133 101.287 72.416C100.957 72.6187 100.557 72.736 100.087 72.768ZM98.0554 71.184L99.7034 67.952H101.095L98.9834 71.184H98.0554ZM104.428 80V71.968H105.724V80H104.428ZM104.268 70.144V68.688H105.868V70.144H104.268ZM39.5374 104V92.224H40.8334V97.744H40.6254C40.8494 97.1147 41.2228 96.64 41.7454 96.32C42.2788 95.9893 42.8921 95.824 43.5854 95.824C44.5454 95.824 45.2601 96.0853 45.7294 96.608C46.1988 97.12 46.4334 97.8987 46.4334 98.944V104H45.1374V99.024C45.1374 98.2773 44.9881 97.7333 44.6894 97.392C44.4014 97.0507 43.9321 96.88 43.2814 96.88C42.5348 96.88 41.9374 97.1093 41.4894 97.568C41.0521 98.0267 40.8334 98.6293 40.8334 99.376V104H39.5374ZM48.9124 104V95.968H50.2084V104H48.9124ZM49.0884 95.184L46.9764 91.952H48.3684L50.0164 95.184H49.0884ZM52.7249 104V97.824C52.7249 97.5253 52.7089 97.2213 52.6769 96.912C52.6556 96.592 52.6289 96.2773 52.5969 95.968H53.8449L54.0049 97.728H53.8129C54.0476 97.1093 54.4209 96.64 54.9329 96.32C55.4556 95.9893 56.0583 95.824 56.7409 95.824C57.6903 95.824 58.4049 96.08 58.8849 96.592C59.3756 97.0933 59.6209 97.888 59.6209 98.976V104H58.3249V99.056C58.3249 98.2987 58.1703 97.7493 57.8609 97.408C57.5623 97.056 57.0929 96.88 56.4529 96.88C55.7063 96.88 55.1143 97.1093 54.6769 97.568C54.2396 98.0267 54.0209 98.64 54.0209 99.408V104H52.7249ZM62.0999 104V92.224H63.3959V97.744H63.1879C63.4119 97.1147 63.7853 96.64 64.3079 96.32C64.8413 95.9893 65.4546 95.824 66.1479 95.824C67.1079 95.824 67.8226 96.0853 68.2919 96.608C68.7613 97.12 68.9959 97.8987 68.9959 98.944V104H67.6999V99.024C67.6999 98.2773 67.5506 97.7333 67.2519 97.392C66.9639 97.0507 66.4946 96.88 65.8439 96.88C65.0973 96.88 64.4999 97.1093 64.0519 97.568C63.6146 98.0267 63.3959 98.6293 63.3959 99.376V104H62.0999ZM78.7028 104.144C77.9881 104.144 77.3641 103.979 76.8308 103.648C76.2975 103.307 75.8815 102.827 75.5828 102.208C75.2948 101.589 75.1508 100.848 75.1508 99.984C75.1508 99.1093 75.2948 98.3627 75.5828 97.744C75.8815 97.1253 76.2975 96.6507 76.8308 96.32C77.3641 95.9893 77.9881 95.824 78.7028 95.824C79.4281 95.824 80.0521 96.0107 80.5748 96.384C81.1081 96.7467 81.4601 97.2427 81.6308 97.872H81.4388L81.6148 95.968H82.8628C82.8308 96.2773 82.7988 96.592 82.7668 96.912C82.7455 97.2213 82.7348 97.5253 82.7348 97.824V104H81.4388V102.112H81.6148C81.4441 102.741 81.0921 103.237 80.5588 103.6C80.0255 103.963 79.4068 104.144 78.7028 104.144ZM78.9588 103.088C79.7268 103.088 80.3348 102.827 80.7828 102.304C81.2308 101.771 81.4548 100.997 81.4548 99.984C81.4548 98.96 81.2308 98.1867 80.7828 97.664C80.3348 97.1307 79.7268 96.864 78.9588 96.864C78.2015 96.864 77.5935 97.1307 77.1348 97.664C76.6868 98.1867 76.4628 98.96 76.4628 99.984C76.4628 100.997 76.6868 101.771 77.1348 102.304C77.5935 102.827 78.2015 103.088 78.9588 103.088ZM78.6548 95.184V94.848C78.6548 94.6027 78.7028 94.4 78.7988 94.24C78.9055 94.08 79.0228 93.9467 79.1508 93.84C79.2788 93.7227 79.3908 93.6053 79.4868 93.488C79.5935 93.3707 79.6468 93.2373 79.6468 93.088C79.6468 92.9387 79.5828 92.8267 79.4548 92.752C79.3375 92.6773 79.1561 92.64 78.9108 92.64C78.7401 92.64 78.5748 92.6613 78.4148 92.704C78.2655 92.736 78.0895 92.7947 77.8868 92.88L77.6788 92.208C77.8708 92.08 78.0895 91.9893 78.3348 91.936C78.5908 91.8827 78.8628 91.856 79.1508 91.856C79.6415 91.856 80.0201 91.952 80.2868 92.144C80.5641 92.3253 80.7028 92.592 80.7028 92.944C80.7028 93.2107 80.6441 93.424 80.5268 93.584C80.4095 93.744 80.2708 93.8827 80.1108 94C79.9615 94.1173 79.8228 94.2453 79.6948 94.384C79.5775 94.5227 79.5188 94.704 79.5188 94.928V95.184H78.6548ZM85.2406 104V97.824C85.2406 97.5253 85.2246 97.2213 85.1926 96.912C85.1712 96.592 85.1446 96.2773 85.1126 95.968H86.3606L86.5206 97.728H86.3286C86.5632 97.1093 86.9366 96.64 87.4486 96.32C87.9712 95.9893 88.5739 95.824 89.2566 95.824C90.2059 95.824 90.9206 96.08 91.4006 96.592C91.8912 97.0933 92.1366 97.888 92.1366 98.976V104H90.8406V99.056C90.8406 98.2987 90.6859 97.7493 90.3766 97.408C90.0779 97.056 89.6086 96.88 88.9686 96.88C88.2219 96.88 87.6299 97.1093 87.1926 97.568C86.7552 98.0267 86.5366 98.64 86.5366 99.408V104H85.2406ZM94.6156 104V92.224H95.9116V97.744H95.7036C95.9276 97.1147 96.3009 96.64 96.8236 96.32C97.3569 95.9893 97.9702 95.824 98.6636 95.824C99.6236 95.824 100.338 96.0853 100.808 96.608C101.277 97.12 101.512 97.8987 101.512 98.944V104H100.216V99.024C100.216 98.2773 100.066 97.7333 99.7676 97.392C99.4796 97.0507 99.0102 96.88 98.3596 96.88C97.6129 96.88 97.0156 97.1093 96.5676 97.568C96.1302 98.0267 95.9116 98.6293 95.9116 99.376V104H94.6156Z" fill="#48464A"/>
<rect x="0.5" y="0.5" width="139" height="139" rx="7.5" stroke="#939094"/>
<defs>
<clipPath id="clip0_224_72049">
<rect width="24" height="24" fill="white" transform="translate(58.5 30)"/>
</clipPath>
</defs>
</svg>
