<svg width="24" height="24" viewBox="0 0 24 24" fill="none" xmlns="http://www.w3.org/2000/svg">
<path d="M20.2418 20.0929L18.9552 8.15625H17.0039V11.4703C17.0039 11.5698 16.9669 11.6652 16.9011 11.7355C16.8353 11.8058 16.746 11.8453 16.6529 11.8453C16.5598 11.8453 16.4705 11.8058 16.4047 11.7355C16.3388 11.6652 16.3018 11.5698 16.3018 11.4703V8.15625H9.01767V11.4703C9.01767 11.5698 8.98069 11.6652 8.91486 11.7355C8.84902 11.8058 8.75973 11.8453 8.66663 11.8453C8.57353 11.8453 8.48424 11.8058 8.4184 11.7355C8.35257 11.6652 8.31559 11.5698 8.31559 11.4703V8.15625H6.10102L4.8144 20.0929C4.78036 20.4093 4.81031 20.7299 4.90224 21.0329C4.99416 21.3359 5.14592 21.6143 5.34724 21.8493C5.57486 22.1165 5.85276 22.3293 6.16274 22.4737C6.47272 22.6182 6.80778 22.691 7.14595 22.6875H17.9102C18.2485 22.6911 18.5836 22.6182 18.8937 22.4737C19.2037 22.3292 19.4817 22.1164 19.7093 21.8491C19.9106 21.6142 20.0623 21.3358 20.1542 21.0328C20.246 20.7298 20.2759 20.4093 20.2418 20.0929ZM9.01767 5.71711C9.01767 3.70195 10.6563 2.0625 12.6598 2.0625C14.6632 2.0625 16.3018 3.70195 16.3018 5.71711V8.15625H17.0039V5.71711C17.0039 3.28837 15.0503 1.3125 12.6598 1.3125C10.2692 1.3125 8.31559 3.28837 8.31559 5.71711V8.15625H9.01767V5.71711Z" fill="#DB242D"/>
</svg>
