<svg width="16" height="16" viewBox="0 0 16 16" fill="none" xmlns="http://www.w3.org/2000/svg">
<path d="M7.99855 2.00143C8.08655 2.00143 8.17389 2.00143 8.26055 2.00143C7.40411 2.79723 6.85361 3.86799 6.70475 5.02757C6.55588 6.18716 6.81806 7.36225 7.44571 8.34858C8.07336 9.33491 9.0268 10.0701 10.1403 10.4264C11.2538 10.7827 12.4569 10.7375 13.5406 10.2988C13.1237 11.3018 12.4424 12.1728 11.5693 12.8189C10.6963 13.4651 9.66418 13.8621 8.58316 13.9677C7.50213 14.0733 6.41273 13.8834 5.43115 13.4184C4.44956 12.9533 3.61263 12.2306 3.00961 11.3272C2.4066 10.4238 2.06012 9.37361 2.00714 8.28874C1.95417 7.20387 2.19667 6.12496 2.7088 5.1671C3.22093 4.20925 3.98346 3.40838 4.91506 2.84992C5.84666 2.29146 6.91239 1.99636 7.99855 1.99609V2.00143Z" stroke="#1C1B1E" stroke-width="1.5" stroke-linecap="round" stroke-linejoin="round"/>
</svg>
