<svg width="48" height="48" viewBox="0 0 48 48" fill="none" xmlns="http://www.w3.org/2000/svg">
<g clip-path="url(#clip0_651_56788)">
<path d="M18 10H14C12.9391 10 11.9217 10.4214 11.1716 11.1716C10.4214 11.9217 10 12.9391 10 14V38C10 39.0609 10.4214 40.0783 11.1716 40.8284C11.9217 41.5786 12.9391 42 14 42H34C35.0609 42 36.0783 41.5786 36.8284 40.8284C37.5786 40.0783 38 39.0609 38 38V14C38 12.9391 37.5786 11.9217 36.8284 11.1716C36.0783 10.4214 35.0609 10 34 10H30" stroke="#136397" stroke-width="3" stroke-linecap="round" stroke-linejoin="round"/>
<path d="M26 6H22C19.7909 6 18 7.79086 18 10C18 12.2091 19.7909 14 22 14H26C28.2091 14 30 12.2091 30 10C30 7.79086 28.2091 6 26 6Z" stroke="#136397" stroke-width="3" stroke-linecap="round" stroke-linejoin="round"/>
<path d="M18 24H18.02" stroke="#136397" stroke-width="3" stroke-linecap="round" stroke-linejoin="round"/>
<path d="M26 24H30" stroke="#136397" stroke-width="3" stroke-linecap="round" stroke-linejoin="round"/>
<path d="M18 32H18.02" stroke="#136397" stroke-width="3" stroke-linecap="round" stroke-linejoin="round"/>
<path d="M26 32H30" stroke="#136397" stroke-width="3" stroke-linecap="round" stroke-linejoin="round"/>
</g>
<defs>
<clipPath id="clip0_651_56788">
<rect width="48" height="48" fill="white"/>
</clipPath>
</defs>
</svg>
