<svg width="180" height="180" viewBox="0 0 180 180" fill="none" xmlns="http://www.w3.org/2000/svg">
<rect x="0.5" y="0.5" width="179" height="179" rx="7.5" fill="white"/>
<g clip-path="url(#clip0_630_59159)">
<path d="M93 70H93.01" stroke="#48464A" stroke-width="1.5" stroke-linecap="round" stroke-linejoin="round"/>
<path d="M95 66H85C83.3431 66 82 67.3431 82 69V79C82 80.6569 83.3431 82 85 82H95C96.6569 82 98 80.6569 98 79V69C98 67.3431 96.6569 66 95 66Z" stroke="#48464A" stroke-width="1.5" stroke-linecap="round" stroke-linejoin="round"/>
<path d="M82 77L86 73C86.4561 72.5611 86.9734 72.3301 87.5 72.3301C88.0266 72.3301 88.5439 72.5611 89 73L94 78" stroke="#48464A" stroke-width="1.5" stroke-linecap="round" stroke-linejoin="round"/>
<path d="M92 76L93 75C93.4561 74.5611 93.9734 74.3301 94.5 74.3301C95.0266 74.3301 95.5439 74.5611 96 75L98 77" stroke="#48464A" stroke-width="1.5" stroke-linecap="round" stroke-linejoin="round"/>
</g>
<path d="M23.144 112V101.84H19.16V100.72H28.44V101.84H24.472V112H23.144ZM29.9203 112V100.224H31.2163V105.744H31.0082C31.2323 105.115 31.6056 104.64 32.1283 104.32C32.6616 103.989 33.2749 103.824 33.9683 103.824C34.9283 103.824 35.6429 104.085 36.1123 104.608C36.5816 105.12 36.8163 105.899 36.8163 106.944V112H35.5203V107.024C35.5203 106.277 35.3709 105.733 35.0723 105.392C34.7843 105.051 34.3149 104.88 33.6643 104.88C32.9176 104.88 32.3203 105.109 31.8723 105.568C31.4349 106.027 31.2163 106.629 31.2163 107.376V112H29.9203ZM42.8633 112.144C41.6046 112.144 40.6126 111.781 39.8873 111.056C39.1619 110.32 38.7993 109.301 38.7993 108C38.7993 107.157 38.9593 106.427 39.2793 105.808C39.5993 105.179 40.0473 104.693 40.6233 104.352C41.1993 104 41.8606 103.824 42.6073 103.824C43.3433 103.824 43.9619 103.979 44.4633 104.288C44.9646 104.597 45.3486 105.04 45.6153 105.616C45.8819 106.181 46.0153 106.853 46.0153 107.632V108.112H39.7913V107.296H45.1673L44.8953 107.504C44.8953 106.651 44.7033 105.984 44.3193 105.504C43.9353 105.024 43.3646 104.784 42.6073 104.784C41.8073 104.784 41.1833 105.067 40.7353 105.632C40.2873 106.187 40.0633 106.939 40.0633 107.888V108.032C40.0633 109.035 40.3086 109.797 40.7993 110.32C41.3006 110.832 41.9993 111.088 42.8953 111.088C43.3753 111.088 43.8233 111.019 44.2393 110.88C44.6659 110.731 45.0713 110.491 45.4553 110.16L45.9033 111.072C45.5513 111.413 45.1033 111.68 44.5593 111.872C44.0259 112.053 43.4606 112.144 42.8633 112.144ZM40.2393 103.184L41.9833 99.952H43.2313L44.9753 103.184H44.0793L42.6073 100.816L41.1353 103.184H40.2393ZM47.9984 112V105.824C47.9984 105.525 47.9824 105.221 47.9504 104.912C47.929 104.592 47.9024 104.277 47.8704 103.968H49.1184L49.2784 105.728H49.0864C49.2997 105.12 49.6357 104.651 50.0944 104.32C50.5637 103.989 51.129 103.824 51.7904 103.824C52.4624 103.824 53.0064 103.984 53.4224 104.304C53.849 104.624 54.137 105.12 54.2864 105.792H54.0464C54.249 105.184 54.6064 104.704 55.1184 104.352C55.6304 104 56.2277 103.824 56.9104 103.824C57.7957 103.824 58.4624 104.08 58.9104 104.592C59.3584 105.093 59.5824 105.888 59.5824 106.976V112H58.2864V107.056C58.2864 106.299 58.153 105.749 57.8864 105.408C57.6197 105.056 57.193 104.88 56.6064 104.88C55.9344 104.88 55.401 105.115 55.0064 105.584C54.6224 106.043 54.4304 106.661 54.4304 107.44V112H53.1344V107.056C53.1344 106.299 53.001 105.749 52.7344 105.408C52.4677 105.056 52.041 104.88 51.4544 104.88C50.7824 104.88 50.2544 105.115 49.8704 105.584C49.4864 106.043 49.2944 106.661 49.2944 107.44V112H47.9984ZM66.2171 112V105.824C66.2171 105.525 66.2011 105.221 66.1691 104.912C66.1478 104.592 66.1211 104.277 66.0891 103.968H67.3371L67.4971 105.728H67.3051C67.5185 105.12 67.8545 104.651 68.3131 104.32C68.7825 103.989 69.3478 103.824 70.0091 103.824C70.6811 103.824 71.2251 103.984 71.6411 104.304C72.0678 104.624 72.3558 105.12 72.5051 105.792H72.2651C72.4678 105.184 72.8251 104.704 73.3371 104.352C73.8491 104 74.4465 103.824 75.1291 103.824C76.0145 103.824 76.6811 104.08 77.1291 104.592C77.5771 105.093 77.8011 105.888 77.8011 106.976V112H76.5051V107.056C76.5051 106.299 76.3718 105.749 76.1051 105.408C75.8385 105.056 75.4118 104.88 74.8251 104.88C74.1531 104.88 73.6198 105.115 73.2251 105.584C72.8411 106.043 72.6491 106.661 72.6491 107.44V112H71.3531V107.056C71.3531 106.299 71.2198 105.749 70.9531 105.408C70.6865 105.056 70.2598 104.88 69.6731 104.88C69.0011 104.88 68.4731 105.115 68.0891 105.584C67.7051 106.043 67.5131 106.661 67.5131 107.44V112H66.2171ZM83.56 112.144C82.792 112.144 82.12 111.979 81.544 111.648C80.9787 111.307 80.5413 110.827 80.232 110.208C79.9227 109.579 79.768 108.837 79.768 107.984C79.768 107.12 79.9227 106.379 80.232 105.76C80.5413 105.141 80.9787 104.667 81.544 104.336C82.12 103.995 82.792 103.824 83.56 103.824C84.3387 103.824 85.0107 103.995 85.576 104.336C86.152 104.667 86.5947 105.141 86.904 105.76C87.224 106.379 87.384 107.12 87.384 107.984C87.384 108.837 87.224 109.579 86.904 110.208C86.5947 110.827 86.152 111.307 85.576 111.648C85.0107 111.979 84.3387 112.144 83.56 112.144ZM83.56 111.088C84.328 111.088 84.936 110.827 85.384 110.304C85.832 109.771 86.056 108.997 86.056 107.984C86.056 106.96 85.8267 106.187 85.368 105.664C84.92 105.131 84.3173 104.864 83.56 104.864C82.8027 104.864 82.2 105.131 81.752 105.664C81.304 106.187 81.08 106.96 81.08 107.984C81.08 108.997 81.304 109.771 81.752 110.304C82.2 110.827 82.8027 111.088 83.56 111.088ZM85.064 104.768L84.392 104.32V103.968C84.84 103.957 85.192 103.888 85.448 103.76C85.704 103.632 85.8853 103.435 85.992 103.168C86.0987 102.901 86.152 102.56 86.152 102.144V101.888H87.304V102.336C87.304 102.816 87.2133 103.232 87.032 103.584C86.8613 103.936 86.6053 104.213 86.264 104.416C85.9333 104.619 85.5333 104.736 85.064 104.768ZM83.032 103.184L84.68 99.952H86.072L83.96 103.184H83.032ZM89.4046 112V103.968H90.7006V112H89.4046ZM89.2446 102.144V100.688H90.8446V102.144H89.2446ZM97.389 112V100.224H98.685V105.744H98.477C98.701 105.115 99.0743 104.64 99.597 104.32C100.13 103.989 100.744 103.824 101.437 103.824C102.397 103.824 103.112 104.085 103.581 104.608C104.05 105.12 104.285 105.899 104.285 106.944V112H102.989V107.024C102.989 106.277 102.84 105.733 102.541 105.392C102.253 105.051 101.784 104.88 101.133 104.88C100.386 104.88 99.789 105.109 99.341 105.568C98.9037 106.027 98.685 106.629 98.685 107.376V112H97.389ZM106.764 112V103.968H108.06V112H106.764ZM106.94 103.184L104.828 99.952H106.22L107.868 103.184H106.94ZM110.577 112V105.824C110.577 105.525 110.561 105.221 110.529 104.912C110.507 104.592 110.481 104.277 110.449 103.968H111.697L111.857 105.728H111.664C111.899 105.109 112.273 104.64 112.785 104.32C113.307 103.989 113.91 103.824 114.593 103.824C115.542 103.824 116.257 104.08 116.737 104.592C117.227 105.093 117.473 105.888 117.473 106.976V112H116.177V107.056C116.177 106.299 116.022 105.749 115.713 105.408C115.414 105.056 114.945 104.88 114.305 104.88C113.558 104.88 112.966 105.109 112.529 105.568C112.091 106.027 111.873 106.64 111.873 107.408V112H110.577ZM119.952 112V100.224H121.248V105.744H121.039C121.264 105.115 121.637 104.64 122.16 104.32C122.693 103.989 123.306 103.824 124 103.824C124.96 103.824 125.674 104.085 126.144 104.608C126.613 105.12 126.848 105.899 126.848 106.944V112H125.552V107.024C125.552 106.277 125.402 105.733 125.104 105.392C124.816 105.051 124.346 104.88 123.696 104.88C122.949 104.88 122.352 105.109 121.904 105.568C121.466 106.027 121.248 106.629 121.248 107.376V112H119.952ZM136.554 112.144C135.84 112.144 135.216 111.979 134.682 111.648C134.149 111.307 133.733 110.827 133.434 110.208C133.146 109.589 133.002 108.848 133.002 107.984C133.002 107.109 133.146 106.363 133.434 105.744C133.733 105.125 134.149 104.651 134.682 104.32C135.216 103.989 135.84 103.824 136.554 103.824C137.28 103.824 137.904 104.011 138.426 104.384C138.96 104.747 139.312 105.243 139.482 105.872H139.29L139.466 103.968H140.714C140.682 104.277 140.65 104.592 140.618 104.912C140.597 105.221 140.586 105.525 140.586 105.824V112H139.29V110.112H139.466C139.296 110.741 138.944 111.237 138.41 111.6C137.877 111.963 137.258 112.144 136.554 112.144ZM136.81 111.088C137.578 111.088 138.186 110.827 138.634 110.304C139.082 109.771 139.306 108.997 139.306 107.984C139.306 106.96 139.082 106.187 138.634 105.664C138.186 105.131 137.578 104.864 136.81 104.864C136.053 104.864 135.445 105.131 134.986 105.664C134.538 106.187 134.314 106.96 134.314 107.984C134.314 108.997 134.538 109.771 134.986 110.304C135.445 110.827 136.053 111.088 136.81 111.088ZM136.506 103.184V102.848C136.506 102.603 136.554 102.4 136.65 102.24C136.757 102.08 136.874 101.947 137.002 101.84C137.13 101.723 137.242 101.605 137.338 101.488C137.445 101.371 137.498 101.237 137.498 101.088C137.498 100.939 137.434 100.827 137.306 100.752C137.189 100.677 137.008 100.64 136.762 100.64C136.592 100.64 136.426 100.661 136.266 100.704C136.117 100.736 135.941 100.795 135.738 100.88L135.53 100.208C135.722 100.08 135.941 99.9893 136.186 99.936C136.442 99.8827 136.714 99.856 137.002 99.856C137.493 99.856 137.872 99.952 138.138 100.144C138.416 100.325 138.554 100.592 138.554 100.944C138.554 101.211 138.496 101.424 138.378 101.584C138.261 101.744 138.122 101.883 137.962 102C137.813 102.117 137.674 102.245 137.546 102.384C137.429 102.523 137.37 102.704 137.37 102.928V103.184H136.506ZM143.092 112V105.824C143.092 105.525 143.076 105.221 143.044 104.912C143.023 104.592 142.996 104.277 142.964 103.968H144.212L144.372 105.728H144.18C144.415 105.109 144.788 104.64 145.3 104.32C145.823 103.989 146.425 103.824 147.108 103.824C148.057 103.824 148.772 104.08 149.252 104.592C149.743 105.093 149.988 105.888 149.988 106.976V112H148.692V107.056C148.692 106.299 148.537 105.749 148.228 105.408C147.929 105.056 147.46 104.88 146.82 104.88C146.073 104.88 145.481 105.109 145.044 105.568C144.607 106.027 144.388 106.64 144.388 107.408V112H143.092ZM152.467 112V100.224H153.763V105.744H153.555C153.779 105.115 154.152 104.64 154.675 104.32C155.208 103.989 155.822 103.824 156.515 103.824C157.475 103.824 158.19 104.085 158.659 104.608C159.128 105.12 159.363 105.899 159.363 106.944V112H158.067V107.024C158.067 106.277 157.918 105.733 157.619 105.392C157.331 105.051 156.862 104.88 156.211 104.88C155.464 104.88 154.867 105.109 154.419 105.568C153.982 106.027 153.763 106.629 153.763 107.376V112H152.467Z" fill="#48464A"/>
<rect x="0.5" y="0.5" width="179" height="179" rx="7.5" stroke="#939094"/>
<defs>
<clipPath id="clip0_630_59159">
<rect width="24" height="24" fill="white" transform="translate(78 62)"/>
</clipPath>
</defs>
</svg>
