<svg width="31" height="30" viewBox="0 0 31 30" fill="none" xmlns="http://www.w3.org/2000/svg">
<path d="M22.7381 7.65192C19.1876 4.15355 13.7264 3.76139 9.7439 6.44123L9.73274 4.9028C9.73087 4.64386 9.51937 4.43545 9.26034 4.43752L8.32293 4.44483C8.06409 4.4468 7.85596 4.6582 7.85784 4.91695L7.88371 8.42555C7.88737 8.94098 8.30671 9.35573 8.82121 9.35573C8.82309 9.35573 8.82581 9.35573 8.82853 9.35573L12.3376 9.32986C12.5965 9.32798 12.8048 9.11639 12.8029 8.85745L12.7956 7.91986C12.7936 7.66101 12.5822 7.45289 12.3234 7.45477L11.727 7.45908C14.8656 5.89233 18.7868 6.39117 21.4217 8.98673C23.9503 11.4794 24.6412 15.2265 23.2043 18.4396C23.1021 18.6684 23.1859 18.9349 23.409 19.049L24.2457 19.4765C24.4828 19.5976 24.7826 19.5 24.8927 19.2577C26.6801 15.3199 25.8424 10.712 22.7381 7.65192ZM22.1787 20.6405C22.1768 20.6405 22.1741 20.6405 22.1714 20.6405L18.6623 20.6663C18.4034 20.6683 18.1951 20.8798 18.1971 21.1387L18.2044 22.0763C18.2063 22.335 18.4177 22.5432 18.6765 22.5414L19.2724 22.5371C16.1336 24.1035 12.213 23.6041 9.57824 21.0094C7.04962 18.5168 6.35868 14.7695 7.79559 11.5565C7.89787 11.3278 7.81406 11.0612 7.59093 10.9471L6.75421 10.5196C6.51712 10.3985 6.21731 10.4961 6.10724 10.7385C4.31962 14.6761 5.15746 19.284 8.26162 22.3442C10.2675 24.3209 12.8842 25.306 15.4988 25.306C17.5121 25.306 19.5234 24.7199 21.2557 23.5538L21.2669 25.0933C21.2688 25.3522 21.4803 25.5606 21.7393 25.5586L22.6767 25.5513C22.9356 25.5493 23.1437 25.3379 23.1418 25.0791L23.1159 21.5706C23.1126 21.0552 22.6933 20.6405 22.1787 20.6405Z" fill="#474747"/>
</svg>
