<svg width="22" height="22" viewBox="0 0 22 22" fill="none" xmlns="http://www.w3.org/2000/svg">
<path d="M19.25 6.41665V15.5833C19.25 18.3333 17.875 20.1666 14.6667 20.1666H7.33333C4.125 20.1666 2.75 18.3333 2.75 15.5833V6.41665C2.75 3.66665 4.125 1.83331 7.33333 1.83331H14.6667C17.875 1.83331 19.25 3.66665 19.25 6.41665Z" stroke="#1C1B1E" stroke-width="1.5" stroke-miterlimit="10" stroke-linecap="round" stroke-linejoin="round"/>
<path d="M14.2082 1.83331V9.0383C14.2082 9.44163 13.7315 9.64329 13.4381 9.37746L11.3115 7.41584C11.1374 7.25084 10.8623 7.25084 10.6881 7.41584L8.56153 9.37746C8.2682 9.64329 7.7915 9.44163 7.7915 9.0383V1.83331H14.2082Z" stroke="#1C1B1E" stroke-width="1.5" stroke-miterlimit="10" stroke-linecap="round" stroke-linejoin="round"/>
<path d="M12.146 12.8333H16.0418" stroke="#1C1B1E" stroke-width="1.5" stroke-miterlimit="10" stroke-linecap="round" stroke-linejoin="round"/>
<path d="M8.25 16.5H16.0417" stroke="#1C1B1E" stroke-width="1.5" stroke-miterlimit="10" stroke-linecap="round" stroke-linejoin="round"/>
</svg>
