<svg width="20" height="20" viewBox="0 0 20 20" fill="none" xmlns="http://www.w3.org/2000/svg">
<path fill-rule="evenodd" clip-rule="evenodd" d="M5.33333 4.39844H14.6667C15.2873 4.39844 15.88 4.66826 16.3187 5.14171C16.7527 5.62026 17 6.2668 17 6.94389V13.053C17 13.7301 16.7527 14.3766 16.3187 14.8552C15.88 15.3286 15.2873 15.5984 14.6667 15.5984H5.33333C4.71267 15.5984 4.12 15.3286 3.68133 14.8552C3.24733 14.3766 3 13.7301 3 13.053V6.94389C3 6.2668 3.24733 5.62026 3.68133 5.14171C4.12 4.66826 4.71267 4.39844 5.33333 4.39844ZM5.33333 5.41662H14.6667C15.04 5.41662 15.3947 5.57953 15.656 5.86462C15.9173 6.14971 16.0667 6.53662 16.0667 6.94389V13.053C16.0667 13.4603 15.9173 13.8472 15.656 14.1323C15.3947 14.4173 15.04 14.5803 14.6667 14.5803H5.33333C4.96 14.5803 4.60533 14.4173 4.344 14.1323C4.08267 13.8472 3.93333 13.4603 3.93333 13.053V6.94389C3.93333 6.53662 4.08267 6.14971 4.344 5.86462C4.60533 5.57953 4.96 5.41662 5.33333 5.41662Z" fill="white"/>
<path d="M16.3224 6.49248C16.4344 6.43139 16.5604 6.42121 16.6817 6.46194C16.7984 6.50775 16.8964 6.59939 16.9477 6.71648C17.0037 6.83866 17.0131 6.97612 16.9757 7.10848C16.9337 7.23575 16.8497 7.34266 16.7424 7.39866L11.0444 10.5092C11.0397 10.5092 11.0351 10.5143 11.0304 10.5143C10.7084 10.6772 10.3537 10.7587 9.99907 10.7536C9.6444 10.7587 9.28973 10.6772 8.96773 10.5143C8.96307 10.5143 8.9584 10.5092 8.95373 10.5092L3.25573 7.39866C3.1484 7.34266 3.0644 7.23575 3.0224 7.10848C2.98507 6.97612 2.9944 6.83866 3.0504 6.71648C3.10173 6.59939 3.19973 6.50775 3.3164 6.46194C3.43773 6.42121 3.56373 6.43139 3.67573 6.49248L9.36907 9.59285C9.56507 9.69466 9.77973 9.74048 9.99907 9.73539C10.2184 9.74048 10.4331 9.69466 10.6291 9.59285L16.3224 6.49248ZM7.66573 12.5456C7.79173 12.5456 7.9084 12.6016 7.99707 12.6932C8.08107 12.7899 8.1324 12.9172 8.1324 13.0547C8.1324 13.1921 8.08107 13.3194 7.99707 13.4161C7.9084 13.5078 7.79173 13.5638 7.66573 13.5638H5.3324C5.2064 13.5638 5.08973 13.5078 5.00107 13.4161C4.91707 13.3194 4.86573 13.1921 4.86573 13.0547C4.86573 12.9172 4.91707 12.7899 5.00107 12.6932C5.08973 12.6016 5.2064 12.5456 5.3324 12.5456H7.66573Z" fill="white"/>
</svg>
