<svg width="20" height="20" viewBox="0 0 20 20" fill="none" xmlns="http://www.w3.org/2000/svg">
<path d="M16.4157 12.6449L15.1656 11.3949C14.7929 11.0252 14.29 10.8168 13.7651 10.8146C13.2402 10.8123 12.7355 11.0165 12.3597 11.3829C12.1592 11.5846 11.8947 11.71 11.6117 11.7377C11.3286 11.7654 11.0448 11.6936 10.809 11.5346C9.8784 10.9136 9.07892 10.1156 8.45603 9.18619C8.29986 8.94777 8.23065 8.66282 8.26004 8.37933C8.28943 8.09584 8.41564 7.83114 8.61741 7.62984C8.98055 7.25371 9.18204 6.75038 9.17875 6.22757C9.17546 5.70476 8.96765 5.20401 8.59979 4.83249L7.34971 3.5824C6.97545 3.20943 6.46861 3 5.94024 3C5.41186 3 4.90503 3.20943 4.53077 3.5824L4.17108 3.94266C2.29596 5.81778 2.43631 9.76009 6.33771 13.6592C8.69014 16.0122 11.0579 16.9975 12.9779 16.9975C13.5431 17.0163 14.1064 16.9225 14.635 16.7214C15.1635 16.5204 15.6468 16.2161 16.0565 15.8264L16.4168 15.4662C16.7905 15.0917 17.0002 14.5843 17 14.0553C16.9998 13.5263 16.7896 13.0191 16.4157 12.6449ZM15.6122 14.6627L15.2519 15.0229C13.7746 16.5003 10.5136 16.2304 7.14003 12.8563C3.76651 9.48223 3.49604 6.21895 4.97341 4.74157L5.33082 4.38189C5.49174 4.22155 5.70966 4.13152 5.93683 4.13152C6.164 4.13152 6.38191 4.22155 6.54283 4.38189L7.79292 5.63197C7.95092 5.79077 8.0406 6.00502 8.04283 6.22902C8.04506 6.45301 7.95966 6.66901 7.80485 6.83092C7.42089 7.21733 7.18138 7.72394 7.12645 8.2659C7.07152 8.80786 7.20451 9.35223 7.50313 9.80782C8.21087 10.8669 9.12099 11.7757 10.1811 12.4819C10.6354 12.7805 11.1783 12.9143 11.7193 12.8608C12.2603 12.8074 12.7665 12.5699 13.1535 12.1881C13.3151 12.0315 13.5317 11.9445 13.7568 11.9459C13.9818 11.9472 14.1973 12.0369 14.357 12.1955L15.6071 13.4456C15.6877 13.525 15.7517 13.6195 15.7956 13.7238C15.8395 13.828 15.8623 13.94 15.8628 14.0531C15.8633 14.1662 15.8414 14.2783 15.7984 14.3829C15.7554 14.4875 15.6921 14.5826 15.6122 14.6627Z" fill="white"/>
</svg>
