<svg width="22" height="22" viewBox="0 0 22 22" fill="none" xmlns="http://www.w3.org/2000/svg">
<path d="M17.8791 11.5307L11.0076 18.3362L4.13619 11.5307C3.68296 11.0897 3.32595 10.5596 3.08766 9.97379C2.84936 9.388 2.73494 8.75921 2.75159 8.12702C2.76824 7.49483 2.91561 6.87294 3.18442 6.3005C3.45322 5.72807 3.83764 5.21749 4.31347 4.80092C4.78929 4.38435 5.34621 4.07082 5.94917 3.88006C6.55212 3.6893 7.18804 3.62545 7.81688 3.69253C8.44572 3.75961 9.05385 3.95617 9.603 4.26983C10.1521 4.58349 10.6304 5.00745 11.0076 5.51502C11.3865 5.01113 11.8653 4.59088 12.4141 4.28055C12.9628 3.97022 13.5698 3.7765 14.1968 3.71151C14.8239 3.64653 15.4577 3.71168 16.0584 3.90288C16.6591 4.09408 17.2139 4.40723 17.6881 4.82271C18.1622 5.2382 18.5455 5.74708 18.814 6.3175C19.0824 6.88793 19.2302 7.50763 19.2481 8.13781C19.2661 8.76799 19.1537 9.39509 18.9182 9.97985C18.6826 10.5646 18.3288 11.0945 17.8791 11.5362" stroke="#1C1B1E" stroke-width="1.5" stroke-linecap="round" stroke-linejoin="round"/>
</svg>
