<svg width="20" height="20" viewBox="0 0 20 20" fill="none" xmlns="http://www.w3.org/2000/svg">
<path d="M9.97702 11.1883C9.50411 11.1883 9.04182 11.0463 8.64861 10.7801C8.2554 10.5139 7.94892 10.1356 7.76795 9.69302C7.58697 9.2504 7.53962 8.76336 7.63188 8.29348C7.72414 7.8236 7.95187 7.39199 8.28627 7.05322C8.62067 6.71446 9.04672 6.48376 9.51054 6.39029C9.97437 6.29683 10.4551 6.3448 10.8921 6.52814C11.329 6.71147 11.7024 7.02195 11.9651 7.42029C12.2279 7.81863 12.3681 8.28696 12.3681 8.76604V8.76604C12.354 8.885 12.2973 8.99459 12.2089 9.0741C12.1204 9.15361 12.0062 9.19751 11.888 9.19751C11.7697 9.19751 11.6555 9.15361 11.567 9.0741C11.4786 8.99459 11.4219 8.885 11.4078 8.76604C11.4082 8.47928 11.3246 8.19884 11.1677 7.9602C11.0107 7.72156 10.7874 7.53545 10.526 7.42542C10.2646 7.3154 9.97684 7.28639 9.69916 7.34208C9.42148 7.39777 9.16635 7.53566 8.96604 7.73828C8.76574 7.94091 8.62926 8.19917 8.57389 8.4804C8.51851 8.76162 8.54672 9.05317 8.65496 9.31814C8.76319 9.58312 8.94657 9.80962 9.18191 9.96898C9.41724 10.1283 9.69395 10.2134 9.97702 10.2134C10.0447 10.2056 10.1133 10.2124 10.1782 10.2332C10.2431 10.2541 10.303 10.2887 10.3538 10.3347C10.4046 10.3806 10.4453 10.4369 10.4731 10.4999C10.501 10.5629 10.5154 10.6312 10.5154 10.7002C10.5154 10.7692 10.501 10.8374 10.4731 10.9004C10.4453 10.9634 10.4046 11.0197 10.3538 11.0657C10.303 11.1116 10.2431 11.1462 10.1782 11.1671C10.1133 11.188 10.0447 11.1948 9.97702 11.1869V11.1883Z" fill="white"/>
<path d="M10.0007 17C9.80932 16.9997 9.62024 16.9577 9.44631 16.8768C9.27238 16.7958 9.11769 16.6779 8.99274 16.5311L5.65241 12.5781C4.93953 11.7357 4.48007 10.7038 4.32852 9.60479C4.17697 8.50582 4.33968 7.38587 4.79736 6.37773C5.25504 5.36959 5.98848 4.51555 6.91074 3.91688C7.83299 3.3182 8.90536 3 10.0007 3C11.0961 3 12.1684 3.3182 13.0907 3.91688C14.0129 4.51555 14.7464 5.36959 15.2041 6.37773C15.6617 7.38587 15.8244 8.50582 15.6729 9.60479C15.5213 10.7038 15.0619 11.7357 14.349 12.5781L12.9922 14.1767C12.954 14.2339 12.9043 14.2824 12.8463 14.3188C12.7883 14.3553 12.7234 14.3789 12.6558 14.3881C12.5882 14.3973 12.5194 14.3919 12.454 14.3723C12.3886 14.3527 12.328 14.3192 12.2763 14.2742C12.2245 14.2292 12.1827 14.1736 12.1537 14.111C12.1247 14.0485 12.109 13.9804 12.1078 13.9113C12.1066 13.8422 12.1198 13.7737 12.1466 13.7101C12.1734 13.6465 12.2132 13.5895 12.2633 13.5426L13.6202 11.944C14.2129 11.2426 14.5947 10.3838 14.7204 9.46929C14.8461 8.55478 14.7103 7.62294 14.3293 6.7842C13.9482 5.94545 13.3377 5.23497 12.5702 4.73693C11.8027 4.2389 10.9104 3.9742 9.99898 3.9742C9.08755 3.9742 8.19522 4.2389 7.42774 4.73693C6.66026 5.23497 6.04981 5.94545 5.66872 6.7842C5.28762 7.62294 5.15187 8.55478 5.27755 9.46929C5.40323 10.3838 5.78507 11.2426 6.37782 11.944L9.72436 15.8991C9.75494 15.9358 9.79236 15.9662 9.83449 15.9883C9.87663 16.0104 9.92265 16.0239 9.96993 16.028C10.0172 16.0321 10.0648 16.0267 10.1101 16.0121C10.1553 15.9976 10.1972 15.9741 10.2335 15.9432C10.2494 15.9299 10.264 15.9151 10.2771 15.8991L10.6916 15.4092C10.7299 15.3522 10.7796 15.3041 10.8375 15.2679C10.8954 15.2318 10.9602 15.2084 11.0277 15.1994C11.0951 15.1903 11.1637 15.1958 11.2289 15.2154C11.2941 15.235 11.3545 15.2683 11.4061 15.3132C11.4577 15.3581 11.4994 15.4135 11.5285 15.4758C11.5576 15.5381 11.5733 15.6059 11.5747 15.6748C11.5761 15.7437 11.5632 15.8122 11.5367 15.8756C11.5103 15.9391 11.4709 15.9962 11.4211 16.0433L11.0108 16.5332C10.8856 16.6801 10.7305 16.798 10.5561 16.8785C10.3818 16.9591 10.1923 17.0005 10.0007 17V17Z" fill="white"/>
</svg>
