<svg width="22" height="22" viewBox="0 0 22 22" fill="none" xmlns="http://www.w3.org/2000/svg">
<path d="M15.5835 16.8942H11.9168L7.83765 19.6075C7.23265 20.0108 6.41683 19.58 6.41683 18.8467V16.8942C3.66683 16.8942 1.8335 15.0609 1.8335 12.3109V6.81081C1.8335 4.06081 3.66683 2.22748 6.41683 2.22748H15.5835C18.3335 2.22748 20.1668 4.06081 20.1668 6.81081V12.3109C20.1668 15.0609 18.3335 16.8942 15.5835 16.8942Z" stroke="#1C1B1E" stroke-width="1.5" stroke-miterlimit="10" stroke-linecap="round" stroke-linejoin="round"/>
<path d="M11.0002 10.4133V10.2209C11.0002 9.59753 11.3852 9.26752 11.7702 9.00168C12.146 8.74502 12.5218 8.41503 12.5218 7.81003C12.5218 6.96669 11.8435 6.28833 11.0002 6.28833C10.1568 6.28833 9.47852 6.96669 9.47852 7.81003" stroke="#1C1B1E" stroke-width="1.5" stroke-linecap="round" stroke-linejoin="round"/>
<path d="M10.9957 12.6041H11.004" stroke="#1C1B1E" stroke-width="1.5" stroke-linecap="round" stroke-linejoin="round"/>
</svg>
