<svg width="22" height="22" viewBox="0 0 22 22" fill="none" xmlns="http://www.w3.org/2000/svg">
<path d="M11 13.75C12.5188 13.75 13.75 12.5188 13.75 11C13.75 9.48122 12.5188 8.25 11 8.25C9.48122 8.25 8.25 9.48122 8.25 11C8.25 12.5188 9.48122 13.75 11 13.75Z" stroke="#1C1B1E" stroke-width="1.5" stroke-miterlimit="10" stroke-linecap="round" stroke-linejoin="round"/>
<path d="M1.8335 11.8066V10.1933C1.8335 9.23998 2.61266 8.45165 3.57516 8.45165C5.23433 8.45165 5.91266 7.27832 5.0785 5.83915C4.60183 5.01415 4.886 3.94165 5.72016 3.46498L7.306 2.55748C8.03016 2.12665 8.96516 2.38332 9.396 3.10748L9.49683 3.28165C10.3218 4.72082 11.6785 4.72082 12.5127 3.28165L12.6135 3.10748C13.0443 2.38332 13.9793 2.12665 14.7035 2.55748L16.2893 3.46498C17.1235 3.94165 17.4077 5.01415 16.931 5.83915C16.0968 7.27832 16.7752 8.45165 18.4343 8.45165C19.3877 8.45165 20.176 9.23082 20.176 10.1933V11.8066C20.176 12.76 19.3968 13.5483 18.4343 13.5483C16.7752 13.5483 16.0968 14.7216 16.931 16.1608C17.4077 16.995 17.1235 18.0583 16.2893 18.535L14.7035 19.4425C13.9793 19.8733 13.0443 19.6166 12.6135 18.8925L12.5127 18.7183C11.6877 17.2791 10.331 17.2791 9.49683 18.7183L9.396 18.8925C8.96516 19.6166 8.03016 19.8733 7.306 19.4425L5.72016 18.535C4.886 18.0583 4.60183 16.9858 5.0785 16.1608C5.91266 14.7216 5.23433 13.5483 3.57516 13.5483C2.61266 13.5483 1.8335 12.76 1.8335 11.8066Z" stroke="#1C1B1E" stroke-width="1.5" stroke-miterlimit="10" stroke-linecap="round" stroke-linejoin="round"/>
</svg>
